#tb 0: 1/25
#media_type 0: video
#codec_id 0: rawvideo
#dimensions 0: 720x480
#sar 0: 0/1
0,          1,          1,        1,   518400, 0xe9c7643e
0,          2,          2,        1,   518400, 0xba7456ec
0,          3,          3,        1,   518400, 0xdeb96749
0,          4,          4,        1,   518400, 0xa101a986
0,          5,          5,        1,   518400, 0x3db7baa5
0,          6,          6,        1,   518400, 0xf3dfcec7
0,          7,          7,        1,   518400, 0x79b4f537
0,          8,          8,        1,   518400, 0x9e64fe68
0,          9,          9,        1,   518400, 0x0e810b53
0,         10,         10,        1,   518400, 0x20baf3b8
0,         11,         11,        1,   518400, 0x0a49d341
0,         12,         12,        1,   518400, 0xa8304ab5
0,         13,         13,        1,   518400, 0x2600e98f
0,         14,         14,        1,   518400, 0x9253e3e8
0,         15,         15,        1,   518400, 0xd6e12783
0,         16,         16,        1,   518400, 0x6894fc79
0,         17,         17,        1,   518400, 0xfb60d3e3
0,         18,         18,        1,   518400, 0x523602be
0,         19,         19,        1,   518400, 0x4979f409
0,         20,         20,        1,   518400, 0x50d4e2ab
0,         21,         21,        1,   518400, 0xa8c2140a
0,         22,         22,        1,   518400, 0x45c0bc15
0,         23,         23,        1,   518400, 0xaef78cab
0,         24,         24,        1,   518400, 0xec539d02
0,         25,         25,        1,   518400, 0x602585ea
0,         26,         26,        1,   518400, 0xda263463
0,         27,         27,        1,   518400, 0xa03d8922
0,         28,         28,        1,   518400, 0x43ea1c1d
0,         29,         29,        1,   518400, 0xb1e055a6
0,         30,         30,        1,   518400, 0x6fff9398
